Coordinates
version=1
nRows=10
nColumns=33
inDegrees=yes

Units are S.I. units (second, meters, Newtons, ...)
Angles are in degrees.

endheader
time	ground_thorax_rot_x	ground_thorax_rot_y	ground_thorax_rot_z	ground_thorax_tx	ground_thorax_ty	ground_thorax_tz	clav_prot_r	clav_elev_r	scapula_abduction_r	scapula_elevation_r	scapula_upward_rot_r	scapula_winging_r	shoulder_elv_r	plane_of_elev_r	axial_rot_r	elbow_flexion_r	pro_sup_r	wrist_flex_r	wrist_dev_r	clav_prot_l	clav_elev_l	scapula_abduction_l	scapula_elevation_l	scapula_upward_rot_l	scapula_winging_l	shoulder_elv_l	plane_of_elev_l	axial_rot_l	elbow_flexion_l	pro_sup_l	wrist_flex_l	wrist_dev_l
      6.06000000	     30.74787781	     32.50217796	     38.39863788	     55.96297623	    769.60703315	    -42.69918423	     13.37302225	     36.92776252	     28.58615809	     45.00000000	    -42.45204424	  -1878.81236578	  -1551.01251296	    159.93300163	     17.61432985	      1.15447377	    174.77436895	     11.21786971	     12.60289595	    -12.45175416	    -45.00000000	    -38.41445211	     45.00000000	    -45.00000000	  -3146.19998578	     85.19952458	     15.00124120	   -179.99999979	    728.43089445	    214.22211111	     10.14385785	    -13.32534172
      6.07000000	     30.66444449	     32.53345736	     38.50865452	     53.44072136	    769.48693949	    -42.56247204	     13.41165852	     36.78918509	     28.45368475	     45.00000000	    -42.59567744	  -1878.92594135	  -1550.89246778	    159.98930160	     17.93345368	      1.08596495	    174.91368825	     11.27245957	     12.59780623	    -12.39711423	    -45.00000000	    -38.21037246	     45.00000000	    -45.00000000	  -3145.98107761	     85.35684612	     14.98226121	   -179.99999979	    728.58714713	    214.33857449	     10.21337836	    -13.35831047
      6.08000000	     30.41071848	     32.65516353	     38.96994201	     50.86295901	    769.39542737	    -42.40623166	     13.46465371	     36.64658720	     28.43077915	     45.00000000	    -43.18859898	  -1879.14251058	  -1550.78523431	    159.90802896	     18.05607408	      1.10386383	    174.96138626	     11.26578784	     12.72099481	    -12.42972372	    -45.00000000	    -38.01621208	     45.00000000	    -45.00000000	  -3145.40639331	     85.45626238	     15.08411525	   -179.99999979	    728.82882305	    214.33667706	     10.18394818	    -13.35201916
      6.09000000	     30.20487796	     32.71783279	     39.33530914	     48.24247715	    769.30504756	    -42.30974508	     13.55274559	     36.46700646	     28.38200412	     45.00000000	    -43.74976623	  -1879.28026303	  -1550.67523726	    159.84620767	     18.21817593	      1.06424262	    175.16920076	     11.32888339	     12.85083037	    -12.40159623	    -45.00000000	    -37.80766476	     45.00000000	    -45.00000000	  -3144.93118194	     85.56366422	     15.12430725	   -179.99999979	    729.10481384	    214.24911548	     10.20714015	    -13.33986140
      6.10000000	     30.16904852	     32.72376326	     39.35457455	     45.59392126	    769.28048101	    -42.28485403	     13.58506122	     36.31143746	     28.21793187	     45.00000000	    -43.82556056	  -1879.36818013	  -1550.53386312	    159.91792698	     18.49046900	      1.00909616	    175.53762757	     11.48831707	     12.93752372	    -12.31498327	    -45.00000000	    -37.64708821	     45.00000000	    -45.00000000	  -3144.77235425	     85.74678455	     15.12882687	   -179.99999979	    729.24379623	    214.08930483	     10.30547108	    -13.37566760
      6.11000000	     29.99606465	     32.81140211	     39.63087171	     42.91027898	    769.32642198	    -42.29407636	     13.61160540	     36.13995436	     28.17124758	     45.00000000	    -44.25719458	  -1879.58404305	  -1550.44162177	    159.87687016	     18.59157167	      1.01332530	    175.86423434	     11.66642554	     13.14653316	    -12.28997509	    -45.00000000	    -37.50192932	     45.00000000	    -45.00000000	  -3144.35898347	     85.88926659	     15.24150152	   -179.99999979	    729.45748708	    213.88452301	     10.33603995	    -13.37625447
      6.12000000	     29.87002412	     32.84047996	     39.83738400	     40.17569771	    769.42481020	    -42.29223125	     13.58669764	     36.03694377	     28.12216477	     45.00000000	    -44.61260479	  -1879.77262564	  -1550.36866240	    159.84512773	     18.69692562	      0.97418073	    176.15737529	     11.86698426	     13.31212334	    -12.26916961	    -45.00000000	    -37.36369521	     45.00000000	    -45.00000000	  -3143.95367525	     85.99042318	     15.30411941	   -179.99999979	    729.64710757	    213.64618294	     10.37143355	    -13.39229405
      6.13000000	     29.73648517	     32.84405761	     40.04076326	     37.37143582	    769.55715834	    -42.23301657	     13.55201057	     35.98300220	     28.04258671	     45.00000000	    -45.00000000	  -1879.97318285	  -1550.27560512	    159.73761280	     18.77096014	      0.96820332	    176.37072995	     12.00012330	     13.47745815	    -12.28090804	    -45.00000000	    -37.25583971	     45.00000000	    -45.00000000	  -3143.51290041	     86.08051016	     15.42622421	   -179.99999979	    729.85598635	    213.35275658	     10.38568833	    -13.38929608
      6.14000000	     29.74440945	     32.76027967	     39.97816138	     34.48173973	    769.70471574	    -42.07043200	     13.52224508	     35.89442361	     27.92612955	     45.00000000	    -45.00000000	  -1880.12766604	  -1550.19020333	    159.76336557	     19.00424951	      0.96480065	    176.50984917	     12.06312383	     13.47464143	    -12.23820478	    -45.00000000	    -37.17851611	     45.00000000	    -45.00000000	  -3143.31648158	     86.21750480	     15.46370965	   -179.99999979	    729.98635603	    213.05893071	     10.47854712	    -13.42752891
      6.15000000	     29.75478963	     32.66718163	     39.93375423	     31.50852330	    769.87086217	    -41.80258682	     13.45482635	     35.87411432	     27.79215212	     45.00000000	    -45.00000000	  -1880.33197958	  -1550.08987993	    159.74957504	     19.20266454	      0.95011804	    176.45615217	     12.03003068	     13.43900529	    -12.22622084	    -45.00000000	    -37.11559944	     45.00000000	    -45.00000000	  -3143.07480923	     86.34068466	     15.52678991	   -179.99999979	    730.11965795	    212.73837566	     10.54718731	    -13.45274613
